<svg width="38" height="38" viewBox="0 0 38 38" fill="none" xmlns="http://www.w3.org/2000/svg">
<g clip-path="url(#clip0_446_891)">
<path d="M25.3333 17.4167H23.75V4.75004C23.75 3.00837 22.325 1.58337 20.5833 1.58337H17.4167C15.675 1.58337 14.25 3.00837 14.25 4.75004V17.4167H12.6667C8.29667 17.4167 4.75 20.9634 4.75 25.3334V36.4167H33.25V25.3334C33.25 20.9634 29.7033 17.4167 25.3333 17.4167ZM17.4167 4.75004H20.5833V17.4167H17.4167V4.75004ZM30.0833 33.25H26.9167V28.5C26.9167 27.6292 26.2042 26.9167 25.3333 26.9167C24.4625 26.9167 23.75 27.6292 23.75 28.5V33.25H20.5833V28.5C20.5833 27.6292 19.8708 26.9167 19 26.9167C18.1292 26.9167 17.4167 27.6292 17.4167 28.5V33.25H14.25V28.5C14.25 27.6292 13.5375 26.9167 12.6667 26.9167C11.7958 26.9167 11.0833 27.6292 11.0833 28.5V33.25H7.91667V25.3334C7.91667 22.7209 10.0542 20.5834 12.6667 20.5834H25.3333C27.9458 20.5834 30.0833 22.7209 30.0833 25.3334V33.25Z" fill="#F3800D"/>
</g>
<defs>
<clipPath id="clip0_446_891">
<rect width="38" height="38" fill="white"/>
</clipPath>
</defs>
</svg>
