<svg width="38" height="38" viewBox="0 0 38 38" fill="none" xmlns="http://www.w3.org/2000/svg">
<g clip-path="url(#clip0_446_885)">
<path d="M33.25 22.1667C33.25 21.2959 32.5375 20.5834 31.6667 20.5834H28.5V23.75H31.6667C32.5375 23.75 33.25 23.0375 33.25 22.1667Z" fill="#F3800D"/>
<path d="M31.6667 26.9167H28.5V30.0834H31.6667C32.5375 30.0834 33.25 29.3709 33.25 28.5001C33.25 27.6292 32.5375 26.9167 31.6667 26.9167Z" fill="#F3800D"/>
<path d="M19 22.1667H15.8334V28.5H19C19 30.2417 20.425 31.6667 22.1667 31.6667H26.9167V19H22.1667C20.425 19 19 20.425 19 22.1667Z" fill="#F3800D"/>
<path d="M7.91667 20.5834C7.91667 18.8417 9.34167 17.4167 11.0833 17.4167H13.4583C16.5142 17.4167 19 14.9309 19 11.875C19 8.81921 16.5142 6.33337 13.4583 6.33337H7.91667C7.04583 6.33337 6.33333 7.04587 6.33333 7.91671C6.33333 8.78754 7.04583 9.50004 7.91667 9.50004H13.4583C14.7725 9.50004 15.8333 10.5609 15.8333 11.875C15.8333 13.1892 14.7725 14.25 13.4583 14.25H11.0833C7.58417 14.25 4.75 17.0842 4.75 20.5834C4.75 24.0825 7.58417 26.9167 11.0833 26.9167H14.25V23.75H11.0833C9.34167 23.75 7.91667 22.325 7.91667 20.5834Z" fill="#F3800D"/>
</g>
<defs>
<clipPath id="clip0_446_885">
<rect width="38" height="38" fill="white"/>
</clipPath>
</defs>
</svg>
