<svg width="38" height="38" viewBox="0 0 38 38" fill="none" xmlns="http://www.w3.org/2000/svg">
<g clip-path="url(#clip0_446_890)">
<path d="M28.5 6.33329V4.74996C28.5 3.87913 27.7875 3.16663 26.9167 3.16663H7.91671C7.04587 3.16663 6.33337 3.87913 6.33337 4.74996V11.0833C6.33337 11.9541 7.04587 12.6666 7.91671 12.6666H26.9167C27.7875 12.6666 28.5 11.9541 28.5 11.0833V9.49996H30.0834V15.8333H14.25V33.25C14.25 34.1208 14.9625 34.8333 15.8334 34.8333H19C19.8709 34.8333 20.5834 34.1208 20.5834 33.25V19H33.25V6.33329H28.5ZM25.3334 9.49996H9.50004V6.33329H25.3334V9.49996Z" fill="#F3800D"/>
</g>
<defs>
<clipPath id="clip0_446_890">
<rect width="38" height="38" fill="white"/>
</clipPath>
</defs>
</svg>
