<svg width="38" height="37" viewBox="0 0 38 37" fill="none" xmlns="http://www.w3.org/2000/svg">
<g clip-path="url(#clip0_446_888)">
<path d="M34.3108 28.012L25.9191 19.8412H24.3516L20.33 23.757V25.2833L28.7216 33.4541C29.3391 34.0554 30.3366 34.0554 30.9541 33.4541L34.3108 30.1858C34.9283 29.5999 34.9283 28.6133 34.3108 28.012ZM29.83 30.2012L23.1166 23.6645L24.2408 22.5699L30.9541 29.1066L29.83 30.2012Z" fill="#F3800D"/>
<path d="M27.455 15.7095L29.6875 13.5358L33.0441 16.8041C34.8966 15.0004 34.8966 12.0712 33.0441 10.2675L27.4391 4.80996L25.2066 6.98371V2.63621L24.0983 1.54163L18.4933 6.99913L19.6175 8.09371H24.0983L21.8658 10.2675L23.5441 11.9016L18.9683 16.357L12.4291 9.98996V7.80079L7.64746 3.14496L3.16663 7.50788L7.96413 12.1791H10.1966L16.7358 18.5462L15.39 19.8566H12.0333L3.64163 28.0275C3.02413 28.6287 3.02413 29.6 3.64163 30.2012L6.99829 33.4695C7.61579 34.0708 8.61329 34.0708 9.23079 33.4695L17.6225 25.2987V22.0304L25.7766 14.0908L27.455 15.7095ZM14.82 23.6491L8.10663 30.1858L6.98246 29.0912L13.6958 22.5545L14.82 23.6491Z" fill="#F3800D"/>
</g>
<defs>
<clipPath id="clip0_446_888">
<rect width="38" height="37" fill="white"/>
</clipPath>
</defs>
</svg>
