<svg width="38" height="38" viewBox="0 0 38 38" fill="none" xmlns="http://www.w3.org/2000/svg">
<g clip-path="url(#clip0_446_893)">
<path d="M31.6666 12.6667H26.9166V9.50004C26.9166 7.75837 25.4916 6.33337 23.75 6.33337H14.25C12.5083 6.33337 11.0833 7.75837 11.0833 9.50004V12.6667H6.33329C4.59163 12.6667 3.16663 14.0917 3.16663 15.8334V31.6667H34.8333V15.8334C34.8333 14.0917 33.4083 12.6667 31.6666 12.6667ZM14.25 9.50004H23.75V12.6667H14.25V9.50004ZM31.6666 28.5H6.33329V23.75H9.49996V25.3334H12.6666V23.75H25.3333V25.3334H28.5V23.75H31.6666V28.5ZM28.5 20.5834V19H25.3333V20.5834H12.6666V19H9.49996V20.5834H6.33329V15.8334H11.0833H26.9166H31.6666V20.5834H28.5Z" fill="#F3800D"/>
</g>
<defs>
<clipPath id="clip0_446_893">
<rect width="38" height="38" fill="white"/>
</clipPath>
</defs>
</svg>
