<svg width="38" height="38" viewBox="0 0 38 38" fill="none" xmlns="http://www.w3.org/2000/svg">
<g clip-path="url(#clip0_446_892)">
<path d="M31.6667 12.6667H26.9167V6.33337H4.75004C3.00837 6.33337 1.58337 7.75837 1.58337 9.50004V26.9167H4.75004C4.75004 29.545 6.87171 31.6667 9.50004 31.6667C12.1284 31.6667 14.25 29.545 14.25 26.9167H23.75C23.75 29.545 25.8717 31.6667 28.5 31.6667C31.1284 31.6667 33.25 29.545 33.25 26.9167H36.4167V19L31.6667 12.6667ZM30.875 15.0417L33.9784 19H26.9167V15.0417H30.875ZM9.50004 28.5C8.62921 28.5 7.91671 27.7875 7.91671 26.9167C7.91671 26.0459 8.62921 25.3334 9.50004 25.3334C10.3709 25.3334 11.0834 26.0459 11.0834 26.9167C11.0834 27.7875 10.3709 28.5 9.50004 28.5ZM13.015 23.75C12.1442 22.7842 10.9092 22.1667 9.50004 22.1667C8.09087 22.1667 6.85587 22.7842 5.98504 23.75H4.75004V9.50004H23.75V23.75H13.015ZM28.5 28.5C27.6292 28.5 26.9167 27.7875 26.9167 26.9167C26.9167 26.0459 27.6292 25.3334 28.5 25.3334C29.3709 25.3334 30.0834 26.0459 30.0834 26.9167C30.0834 27.7875 29.3709 28.5 28.5 28.5Z" fill="#F3800D"/>
</g>
<defs>
<clipPath id="clip0_446_892">
<rect width="38" height="38" fill="white"/>
</clipPath>
</defs>
</svg>
