<svg width="29" height="29" viewBox="0 0 29 29" fill="none" xmlns="http://www.w3.org/2000/svg">
<g clip-path="url(#clip0_446_871)">
<path d="M14.5 2.41663C9.82371 2.41663 6.04163 6.19871 6.04163 10.875C6.04163 15.9137 11.3825 22.8616 13.5816 25.5079C14.065 26.0879 14.947 26.0879 15.4304 25.5079C17.6175 22.8616 22.9583 15.9137 22.9583 10.875C22.9583 6.19871 19.1762 2.41663 14.5 2.41663ZM14.5 13.8958C12.8325 13.8958 11.4791 12.5425 11.4791 10.875C11.4791 9.20746 12.8325 7.85413 14.5 7.85413C16.1675 7.85413 17.5208 9.20746 17.5208 10.875C17.5208 12.5425 16.1675 13.8958 14.5 13.8958Z" fill="#F3800D"/>
</g>
<defs>
<clipPath id="clip0_446_871">
<rect width="29" height="29" fill="white"/>
</clipPath>
</defs>
</svg>
