<svg width="40" height="40" viewBox="0 0 40 40" fill="none" xmlns="http://www.w3.org/2000/svg">
<g clip-path="url(#clip0_446_873)">
<path d="M20 36.6666C21.8333 36.6666 23.3333 35.1666 23.3333 33.3333H16.6666C16.6666 35.1666 18.15 36.6666 20 36.6666ZM30 26.6666V18.3333C30 13.2166 27.2666 8.93329 22.5 7.79996V6.66663C22.5 5.28329 21.3833 4.16663 20 4.16663C18.6166 4.16663 17.5 5.28329 17.5 6.66663V7.79996C12.7166 8.93329 9.99996 13.2 9.99996 18.3333V26.6666L7.84996 28.8166C6.79996 29.8666 7.5333 31.6666 9.01663 31.6666H30.9666C32.45 31.6666 33.2 29.8666 32.15 28.8166L30 26.6666Z" fill="white"/>
</g>
<defs>
<clipPath id="clip0_446_873">
<rect width="40" height="40" rx="10" fill="white"/>
</clipPath>
</defs>
</svg>
