<svg width="38" height="38" viewBox="0 0 38 38" fill="none" xmlns="http://www.w3.org/2000/svg">
<g clip-path="url(#clip0_446_882)">
<path d="M30.5266 7.80587L27.1699 4.4492C25.9349 3.2142 23.9241 3.2142 22.6891 4.4492L18.2083 8.93003L21.5649 12.2867L24.9216 8.93003L30.5266 14.535C32.3791 12.6667 32.3791 9.65837 30.5266 7.80587Z" fill="#F3800D"/>
<path d="M8.69245 21.8025C9.62661 22.7367 11.1308 22.7367 12.0491 21.8025L15.9599 17.8917L12.6033 14.5192L8.69245 18.43C7.75828 19.3642 7.75828 20.8683 8.69245 21.8025Z" fill="#F3800D"/>
<path d="M23.8133 12.2867L22.6891 13.4108L21.565 14.535L16.53 9.50001C15.5958 8.55001 14.0916 8.55001 13.1733 9.48418C12.2391 10.4183 12.2391 11.9225 13.1733 12.8408L18.2083 17.8758L17.0841 19L7.01414 29.07C5.77914 30.305 5.77914 32.3158 7.01414 33.5508C8.24914 34.7858 10.26 34.7858 11.495 33.5508L26.0458 19C26.6633 19.6175 27.6608 19.6175 28.2783 19C28.8958 18.3825 28.8958 17.385 28.2783 16.7675L23.8133 12.2867Z" fill="#F3800D"/>
</g>
<defs>
<clipPath id="clip0_446_882">
<rect width="38" height="38" fill="white"/>
</clipPath>
</defs>
</svg>
