<svg width="34" height="34" viewBox="0 0 34 34" fill="none" xmlns="http://www.w3.org/2000/svg">
<g clip-path="url(#clip0_446_876)">
<path d="M22.5804 20.1223H21.4219L21.0113 19.7266C22.771 17.6748 23.6802 14.8755 23.1816 11.9004C22.4924 7.82607 19.0903 4.57249 14.9843 4.0742C8.78123 3.3121 3.56072 8.52955 4.32326 14.7289C4.82185 18.8326 8.07734 22.2327 12.154 22.9215C15.1309 23.4198 17.9318 22.5112 19.9848 20.7525L20.3807 21.1628V22.3206L26.6131 28.5493C27.2143 29.1502 28.1969 29.1502 28.7981 28.5493C29.3993 27.9484 29.3993 26.9665 28.7981 26.3656L22.5804 20.1223ZM13.7818 20.1223C10.1304 20.1223 7.18281 17.1765 7.18281 13.5272C7.18281 9.87788 10.1304 6.93207 13.7818 6.93207C17.4332 6.93207 20.3807 9.87788 20.3807 13.5272C20.3807 17.1765 17.4332 20.1223 13.7818 20.1223Z" fill="#012249"/>
</g>
<defs>
<clipPath id="clip0_446_876">
<rect width="34" height="34" fill="white"/>
</clipPath>
</defs>
</svg>
