<svg width="38" height="37" viewBox="0 0 38 37" fill="none" xmlns="http://www.w3.org/2000/svg">
<g clip-path="url(#clip0_446_889)">
<path d="M19 35.4583H17.4167V25.3295C15.7225 26.825 13.49 27.75 11.0834 27.75C5.93754 27.75 1.58337 23.5104 1.58337 18.5V16.9583H11.9859C10.45 15.3087 9.50004 13.135 9.50004 10.7916C9.50004 5.78121 13.8542 1.54163 19 1.54163H20.5834V11.6704C22.2775 10.175 24.51 9.24996 26.9167 9.24996C32.0625 9.24996 36.4167 13.4895 36.4167 18.5V20.0416H26.0142C27.55 21.6912 28.5 23.865 28.5 26.2083C28.5 31.2187 24.1459 35.4583 19 35.4583ZM20.5834 20.242V32.1745C23.275 31.4654 25.3334 29.0295 25.3334 26.2083C25.3334 23.387 23.275 20.9512 20.5834 20.242ZM4.95587 20.0416C5.68421 22.6625 8.18587 24.6666 11.0834 24.6666C13.9809 24.6666 16.4825 22.6625 17.2109 20.0416H4.95587ZM20.7892 16.9583H33.0442C32.3159 14.3375 29.7984 12.3333 26.9167 12.3333C24.035 12.3333 21.5175 14.3375 20.7892 16.9583ZM17.4167 4.82538C14.725 5.53454 12.6667 7.98579 12.6667 10.7916C12.6667 13.5975 14.725 16.0487 17.4167 16.7579V4.82538Z" fill="#F3800D"/>
</g>
<defs>
<clipPath id="clip0_446_889">
<rect width="38" height="37" fill="white"/>
</clipPath>
</defs>
</svg>
